<svg width="155" height="62" viewBox="0 0 155 62" fill="none" xmlns="http://www.w3.org/2000/svg">
<rect x="107" y="1" width="40" height="40" rx="20" fill="#F9FAFB"/>
<path d="M134.326 21.5062C134.53 21.3318 134.631 21.2446 134.669 21.1409C134.701 21.0498 134.701 20.9502 134.669 20.8591C134.631 20.7554 134.53 20.6682 134.326 20.4938L127.267 14.4433C126.917 14.1431 126.742 13.9931 126.594 13.9894C126.465 13.9862 126.342 14.0428 126.26 14.1427C126.167 14.2576 126.167 14.4883 126.167 14.9495V18.5289C124.388 18.8401 122.76 19.7415 121.55 21.0949C120.231 22.5704 119.501 24.48 119.5 26.4591V26.9691C120.374 25.9157 121.466 25.0638 122.701 24.4716C123.789 23.9495 124.965 23.6403 126.167 23.5588V27.0505C126.167 27.5117 126.167 27.7424 126.26 27.8573C126.342 27.9572 126.465 28.0138 126.594 28.0106C126.742 28.0069 126.917 27.8569 127.267 27.5567L134.326 21.5062Z" stroke="#667085" stroke-width="1.66667" stroke-linecap="round" stroke-linejoin="round"/>
<g filter="url(#filter0_d_1274_878)">
<path fill-rule="evenodd" clip-rule="evenodd" d="M139.831 39.4731C139.553 39.0969 139.215 38.3277 138.614 37.394C138.274 36.8658 137.429 35.8713 137.178 35.3662C136.96 34.9198 136.983 34.7196 137.035 34.3497C137.127 33.6916 137.757 33.1792 138.429 33.2483C138.937 33.2997 139.368 33.6591 139.755 33.9987C139.989 34.203 140.277 34.6002 140.45 34.8244C140.609 35.0298 140.649 35.1147 140.819 35.3578C141.044 35.6795 141.114 35.8388 141.028 35.4846C140.959 34.9649 140.845 34.0773 140.681 33.2924C140.556 32.6971 140.525 32.6039 140.406 32.147C140.28 31.6607 140.215 31.3201 140.097 30.8046C140.015 30.4399 139.867 29.6948 139.827 29.2756C139.771 28.7024 139.742 27.7676 140.085 27.338C140.354 27.0016 140.971 26.9 141.354 27.1074C141.855 27.3789 142.14 28.1585 142.27 28.4698C142.504 29.0294 142.649 29.6759 142.775 30.5248C142.935 31.6052 143.231 33.1048 143.24 33.4202C143.264 33.0335 143.174 32.2193 143.237 31.8483C143.293 31.5119 143.557 31.121 143.888 31.0152C144.168 30.9261 144.496 30.8936 144.784 30.9576C145.091 31.0246 145.414 31.2594 145.534 31.4805C145.888 32.1344 145.895 33.4705 145.91 33.3992C145.994 33.0052 145.979 32.1113 146.188 31.7393C146.325 31.4941 146.674 31.273 146.86 31.2374C147.147 31.1829 147.501 31.1661 147.803 31.229C148.047 31.2803 148.376 31.5905 148.465 31.7393C148.679 32.0998 148.8 33.1194 148.836 33.4768C148.851 33.6245 148.909 33.066 149.123 32.7055C149.52 32.0359 150.926 31.9059 150.98 33.3751C151.004 34.0605 151 34.0291 151 34.4901C151 35.0319 150.988 35.3578 150.96 35.7498C150.93 36.1689 150.846 37.1163 150.724 37.5753C150.64 37.8907 150.361 38.6001 150.086 39.0256C150.086 39.0256 149.035 40.3355 148.92 40.9255C148.805 41.5144 148.843 41.5186 148.821 41.9368C148.798 42.3538 148.939 42.903 148.939 42.903C148.939 42.903 148.154 43.0119 147.732 42.9396C147.349 42.8736 146.875 42.0583 146.753 41.8089C146.585 41.4652 146.226 41.5312 146.086 41.7848C145.866 42.1862 145.392 42.9061 145.057 42.9512C144.404 43.0392 143.048 42.9836 141.986 42.9721C141.986 42.9721 142.167 41.9127 141.764 41.549C141.466 41.2776 140.952 40.7274 140.645 40.4382L139.831 39.4731Z" fill="white"/>
<path fill-rule="evenodd" clip-rule="evenodd" d="M139.831 39.4731C139.553 39.0969 139.215 38.3277 138.614 37.394C138.274 36.8658 137.429 35.8713 137.178 35.3662C136.96 34.9198 136.983 34.7196 137.035 34.3497C137.127 33.6916 137.757 33.1792 138.429 33.2483C138.937 33.2997 139.368 33.6591 139.755 33.9987C139.989 34.203 140.277 34.6002 140.45 34.8244C140.609 35.0298 140.649 35.1147 140.819 35.3578C141.044 35.6795 141.114 35.8388 141.028 35.4846C140.959 34.9649 140.845 34.0773 140.681 33.2924C140.556 32.6971 140.525 32.6039 140.406 32.147C140.28 31.6607 140.215 31.3201 140.097 30.8046C140.015 30.4399 139.867 29.6948 139.827 29.2756C139.771 28.7024 139.742 27.7676 140.085 27.338C140.354 27.0016 140.971 26.9 141.354 27.1074C141.855 27.3789 142.14 28.1585 142.27 28.4698C142.504 29.0294 142.649 29.6759 142.775 30.5248C142.935 31.6052 143.231 33.1048 143.24 33.4202C143.264 33.0335 143.174 32.2193 143.237 31.8483C143.293 31.5119 143.557 31.121 143.888 31.0152C144.168 30.9261 144.496 30.8936 144.784 30.9576C145.091 31.0246 145.414 31.2594 145.534 31.4805C145.888 32.1344 145.895 33.4705 145.91 33.3992C145.994 33.0052 145.979 32.1113 146.188 31.7393C146.325 31.4941 146.674 31.273 146.86 31.2374C147.147 31.1829 147.501 31.1661 147.803 31.229C148.047 31.2803 148.376 31.5905 148.465 31.7393C148.679 32.0998 148.8 33.1194 148.836 33.4768C148.851 33.6245 148.909 33.066 149.123 32.7055C149.52 32.0359 150.926 31.9059 150.98 33.3751C151.004 34.0605 151 34.0291 151 34.4901C151 35.0319 150.988 35.3578 150.96 35.7498C150.93 36.1689 150.846 37.1163 150.724 37.5753C150.64 37.8907 150.361 38.6001 150.086 39.0256C150.086 39.0256 149.035 40.3355 148.92 40.9255C148.805 41.5144 148.843 41.5186 148.821 41.9368C148.798 42.3538 148.939 42.903 148.939 42.903C148.939 42.903 148.154 43.0119 147.732 42.9396C147.349 42.8736 146.875 42.0583 146.753 41.8089C146.585 41.4652 146.226 41.5312 146.086 41.7848C145.866 42.1862 145.392 42.9061 145.057 42.9512C144.404 43.0392 143.048 42.9836 141.986 42.9721C141.986 42.9721 142.167 41.9127 141.764 41.549C141.466 41.2776 140.952 40.7274 140.645 40.4382L139.831 39.4731Z" stroke="#101828" stroke-width="0.75" stroke-linecap="round" stroke-linejoin="round"/>
</g>
<path fill-rule="evenodd" clip-rule="evenodd" d="M144 36.5C144 36.2239 143.776 36 143.5 36C143.224 36 143 36.2239 143 36.5V39.5C143 39.7761 143.224 40 143.5 40C143.776 40 144 39.7761 144 39.5V36.5ZM145.5 36C145.776 36 146 36.2239 146 36.5V39.5C146 39.7761 145.776 40 145.5 40C145.224 40 145 39.7761 145 39.5V36.5C145 36.2239 145.224 36 145.5 36ZM147.5 36C147.776 36 148 36.2239 148 36.5V39.5C148 39.7761 147.776 40 147.5 40C147.224 40 147 39.7761 147 39.5V36.5C147 36.2239 147.224 36 147.5 36Z" fill="#101828"/>
<g filter="url(#filter1_dd_1274_878)">
<rect x="12" y="4" width="85" height="34" rx="8" fill="#101828"/>
<path d="M29.758 18.6719C29.7182 18.2997 29.5506 18.0099 29.2551 17.8026C28.9625 17.5952 28.5819 17.4915 28.1131 17.4915C27.7836 17.4915 27.5009 17.5412 27.2651 17.6406C27.0293 17.7401 26.8489 17.875 26.7239 18.0455C26.5989 18.2159 26.535 18.4105 26.5321 18.6293C26.5321 18.8111 26.5733 18.9687 26.6557 19.1023C26.7409 19.2358 26.856 19.3494 27.0009 19.4432C27.1458 19.5341 27.3063 19.6108 27.4824 19.6733C27.6586 19.7358 27.8361 19.7884 28.0151 19.831L28.8333 20.0355C29.1628 20.1122 29.4796 20.2159 29.7836 20.3466C30.0904 20.4773 30.3645 20.642 30.606 20.8409C30.8503 21.0398 31.0435 21.2798 31.1855 21.5611C31.3276 21.8423 31.3986 22.1719 31.3986 22.5497C31.3986 23.0611 31.2679 23.5114 31.0066 23.9006C30.7452 24.2869 30.3674 24.5895 29.873 24.8082C29.3816 25.0241 28.7864 25.1321 28.0875 25.1321C27.4086 25.1321 26.8191 25.027 26.3191 24.8168C25.8219 24.6065 25.4327 24.2997 25.1515 23.8963C24.873 23.4929 24.7225 23.0014 24.6998 22.4219H26.2551C26.2779 22.7259 26.3716 22.9787 26.5364 23.1804C26.7012 23.3821 26.9157 23.5327 27.1799 23.6321C27.4469 23.7315 27.7452 23.7812 28.0748 23.7812C28.4185 23.7812 28.7196 23.7301 28.9782 23.6278C29.2395 23.5227 29.4441 23.3778 29.5918 23.1932C29.7395 23.0057 29.8148 22.7869 29.8176 22.5369C29.8148 22.3097 29.748 22.1222 29.6174 21.9744C29.4867 21.8239 29.3034 21.6989 29.0676 21.5994C28.8347 21.4972 28.562 21.4062 28.2495 21.3267L27.2566 21.071C26.5378 20.8864 25.9696 20.6065 25.552 20.2315C25.1373 19.8537 24.9299 19.3523 24.9299 18.7273C24.9299 18.2131 25.0691 17.7628 25.3475 17.3764C25.6287 16.9901 26.0108 16.6903 26.4938 16.4773C26.9767 16.2614 27.5236 16.1534 28.1344 16.1534C28.7537 16.1534 29.2963 16.2614 29.7623 16.4773C30.231 16.6903 30.5989 16.9872 30.8659 17.3679C31.133 17.7457 31.2708 18.1804 31.2793 18.6719H29.758ZM34.2825 21.1648V25H32.7399V16.2727H34.2484V19.5668H34.3251C34.4785 19.1974 34.7157 18.9062 35.0368 18.6932C35.3606 18.4773 35.7725 18.3693 36.2725 18.3693C36.7271 18.3693 37.1234 18.4645 37.4615 18.6548C37.7995 18.8452 38.0609 19.1236 38.2456 19.4901C38.4331 19.8565 38.5268 20.304 38.5268 20.8324V25H36.9842V21.071C36.9842 20.6307 36.8706 20.2884 36.6433 20.044C36.4189 19.7969 36.1035 19.6733 35.6973 19.6733C35.4245 19.6733 35.1802 19.733 34.9643 19.8523C34.7512 19.9687 34.5836 20.1378 34.4615 20.3594C34.3422 20.581 34.2825 20.8494 34.2825 21.1648ZM41.9828 25.1321C41.568 25.1321 41.1944 25.0582 40.862 24.9105C40.5325 24.7599 40.2711 24.5384 40.0779 24.2457C39.8876 23.9531 39.7924 23.5923 39.7924 23.1634C39.7924 22.794 39.8606 22.4886 39.997 22.2472C40.1333 22.0057 40.3194 21.8125 40.5552 21.6676C40.791 21.5227 41.0566 21.4134 41.3521 21.3395C41.6504 21.2628 41.9586 21.2074 42.2768 21.1733C42.6603 21.1335 42.9714 21.098 43.21 21.0668C43.4487 21.0327 43.622 20.9815 43.7299 20.9134C43.8407 20.8423 43.8961 20.733 43.8961 20.5852V20.5597C43.8961 20.2386 43.801 19.9901 43.6106 19.8139C43.4203 19.6378 43.1461 19.5497 42.7882 19.5497C42.4103 19.5497 42.1106 19.6321 41.889 19.7969C41.6703 19.9616 41.5225 20.1562 41.4458 20.3807L40.0055 20.1761C40.1191 19.7784 40.3066 19.446 40.568 19.179C40.8294 18.9091 41.149 18.7074 41.5268 18.5739C41.9047 18.4375 42.3223 18.3693 42.7797 18.3693C43.095 18.3693 43.4089 18.4062 43.7214 18.4801C44.0339 18.554 44.3194 18.6761 44.5779 18.8466C44.8365 19.0142 45.0439 19.2429 45.2001 19.5327C45.3592 19.8224 45.4387 20.1847 45.4387 20.6193V25H43.9558V24.1009H43.9047C43.8109 24.2827 43.6788 24.4531 43.5083 24.6122C43.3407 24.7685 43.1291 24.8949 42.8734 24.9915C42.6206 25.0852 42.3237 25.1321 41.9828 25.1321ZM42.3833 23.9986C42.693 23.9986 42.9615 23.9375 43.1887 23.8153C43.416 23.6903 43.5907 23.5256 43.7129 23.321C43.8379 23.1165 43.9004 22.8935 43.9004 22.652V21.8807C43.8521 21.9205 43.7697 21.9574 43.6532 21.9915C43.5396 22.0256 43.4118 22.0554 43.2697 22.081C43.1277 22.1065 42.987 22.1293 42.8478 22.1491C42.7086 22.169 42.5879 22.1861 42.4856 22.2003C42.2555 22.2315 42.0495 22.2827 41.8677 22.3537C41.6859 22.4247 41.5424 22.5241 41.4373 22.652C41.3322 22.777 41.2797 22.9389 41.2797 23.1378C41.2797 23.4219 41.3833 23.6364 41.5907 23.7812C41.7981 23.9261 42.0623 23.9986 42.3833 23.9986ZM46.9899 25V18.4545H48.4856V19.5455H48.5538C48.6731 19.1676 48.8777 18.8764 49.1674 18.6719C49.46 18.4645 49.7939 18.3608 50.1689 18.3608C50.2541 18.3608 50.3493 18.3651 50.4544 18.3736C50.5623 18.3793 50.6518 18.3892 50.7228 18.4034V19.8224C50.6575 19.7997 50.5538 19.7798 50.4118 19.7628C50.2725 19.7429 50.1376 19.733 50.0069 19.733C49.7257 19.733 49.4728 19.794 49.2484 19.9162C49.0268 20.0355 48.8521 20.2017 48.7243 20.4148C48.5964 20.6278 48.5325 20.8736 48.5325 21.152V25H46.9899ZM54.3759 25.1278C53.7196 25.1278 53.1529 24.9915 52.6756 24.7188C52.2012 24.4432 51.8361 24.054 51.5804 23.5511C51.3248 23.0455 51.1969 22.4503 51.1969 21.7656C51.1969 21.0923 51.3248 20.5014 51.5804 19.9929C51.839 19.4815 52.1998 19.0838 52.6628 18.7997C53.1259 18.5128 53.6699 18.3693 54.2949 18.3693C54.6983 18.3693 55.079 18.4347 55.437 18.5653C55.7978 18.6932 56.1159 18.892 56.3915 19.1619C56.6699 19.4318 56.8887 19.7756 57.0478 20.1932C57.2069 20.608 57.2864 21.1023 57.2864 21.6761V22.1491H51.9213V21.1094H55.8077C55.8049 20.8139 55.7409 20.5511 55.6159 20.321C55.4909 20.0881 55.3162 19.9048 55.0918 19.7713C54.8702 19.6378 54.6117 19.571 54.3162 19.571C54.0009 19.571 53.7239 19.6477 53.4853 19.8011C53.2466 19.9517 53.0605 20.1506 52.927 20.3977C52.7963 20.642 52.7296 20.9105 52.7267 21.2031V22.1108C52.7267 22.4915 52.7963 22.8182 52.9355 23.0909C53.0748 23.3608 53.2694 23.5682 53.5194 23.7131C53.7694 23.8551 54.062 23.9261 54.3972 23.9261C54.6216 23.9261 54.8248 23.8949 55.0066 23.8324C55.1884 23.767 55.3461 23.6719 55.4796 23.5469C55.6131 23.4219 55.714 23.267 55.7821 23.0824L57.2225 23.2443C57.1316 23.625 56.9583 23.9574 56.7026 24.2415C56.4498 24.5227 56.1259 24.7415 55.731 24.8977C55.3361 25.0511 54.8844 25.1278 54.3759 25.1278ZM61.6362 25V16.2727H63.2172V23.6747H67.0609V25H61.6362ZM68.3649 25V18.4545H69.9075V25H68.3649ZM69.1404 17.5256C68.8961 17.5256 68.6859 17.4446 68.5098 17.2827C68.3336 17.1179 68.2456 16.9205 68.2456 16.6903C68.2456 16.4574 68.3336 16.2599 68.5098 16.098C68.6859 15.9332 68.8961 15.8509 69.1404 15.8509C69.3876 15.8509 69.5978 15.9332 69.7711 16.098C69.9473 16.2599 70.0353 16.4574 70.0353 16.6903C70.0353 16.9205 69.9473 17.1179 69.7711 17.2827C69.5978 17.4446 69.3876 17.5256 69.1404 17.5256ZM73.0364 21.1648V25H71.4938V18.4545H72.9682V19.5668H73.0449C73.1955 19.2003 73.4355 18.9091 73.7651 18.6932C74.0975 18.4773 74.508 18.3693 74.9966 18.3693C75.4483 18.3693 75.8418 18.4659 76.177 18.6591C76.5151 18.8523 76.7765 19.1321 76.9611 19.4986C77.1486 19.8651 77.2409 20.3097 77.2381 20.8324V25H75.6955V21.071C75.6955 20.6335 75.5819 20.2912 75.3546 20.044C75.1301 19.7969 74.8191 19.6733 74.4213 19.6733C74.1515 19.6733 73.9114 19.733 73.7012 19.8523C73.4938 19.9687 73.3304 20.1378 73.2111 20.3594C73.0946 20.581 73.0364 20.8494 73.0364 21.1648ZM80.2125 22.946L80.2083 21.0838H80.4554L82.8077 18.4545H84.6103L81.7168 21.6761H81.3972L80.2125 22.946ZM78.8063 25V16.2727H80.3489V25H78.8063ZM82.9142 25L80.7836 22.0213L81.8233 20.9347L84.7594 25H82.9142Z" fill="white"/>
<path d="M94.4853 14.9289C94.4853 14.038 95.5624 13.5919 96.1924 14.2218L102.263 20.2929C102.654 20.6834 102.654 21.3166 102.263 21.7071L96.1924 27.7782C95.5624 28.4081 94.4853 27.962 94.4853 27.0711L94.4853 14.9289Z" fill="#101828"/>
</g>
<rect x="107" y="1" width="40" height="40" rx="20" stroke="#D0D5DD" stroke-linecap="round" stroke-linejoin="round" stroke-dasharray="1 3"/>
<defs>
<filter id="filter0_d_1274_878" x="134.625" y="25.625" width="18.7499" height="20.75" filterUnits="userSpaceOnUse" color-interpolation-filters="sRGB">
<feFlood flood-opacity="0" result="BackgroundImageFix"/>
<feColorMatrix in="SourceAlpha" type="matrix" values="0 0 0 0 0 0 0 0 0 0 0 0 0 0 0 0 0 0 127 0" result="hardAlpha"/>
<feOffset dy="1"/>
<feGaussianBlur stdDeviation="1"/>
<feColorMatrix type="matrix" values="0 0 0 0 0 0 0 0 0 0 0 0 0 0 0 0 0 0 0.24 0"/>
<feBlend mode="normal" in2="BackgroundImageFix" result="effect1_dropShadow_1274_878"/>
<feBlend mode="normal" in="SourceGraphic" in2="effect1_dropShadow_1274_878" result="shape"/>
</filter>
<filter id="filter1_dd_1274_878" x="0" y="4" width="115" height="58" filterUnits="userSpaceOnUse" color-interpolation-filters="sRGB">
<feFlood flood-opacity="0" result="BackgroundImageFix"/>
<feColorMatrix in="SourceAlpha" type="matrix" values="0 0 0 0 0 0 0 0 0 0 0 0 0 0 0 0 0 0 127 0" result="hardAlpha"/>
<feMorphology radius="2" operator="erode" in="SourceAlpha" result="effect1_dropShadow_1274_878"/>
<feOffset dy="4"/>
<feGaussianBlur stdDeviation="3"/>
<feColorMatrix type="matrix" values="0 0 0 0 0.0627451 0 0 0 0 0.0941176 0 0 0 0 0.156863 0 0 0 0.03 0"/>
<feBlend mode="normal" in2="BackgroundImageFix" result="effect1_dropShadow_1274_878"/>
<feColorMatrix in="SourceAlpha" type="matrix" values="0 0 0 0 0 0 0 0 0 0 0 0 0 0 0 0 0 0 127 0" result="hardAlpha"/>
<feMorphology radius="4" operator="erode" in="SourceAlpha" result="effect2_dropShadow_1274_878"/>
<feOffset dy="12"/>
<feGaussianBlur stdDeviation="8"/>
<feColorMatrix type="matrix" values="0 0 0 0 0.0627451 0 0 0 0 0.0941176 0 0 0 0 0.156863 0 0 0 0.08 0"/>
<feBlend mode="normal" in2="effect1_dropShadow_1274_878" result="effect2_dropShadow_1274_878"/>
<feBlend mode="normal" in="SourceGraphic" in2="effect2_dropShadow_1274_878" result="shape"/>
</filter>
</defs>
</svg>
